<svg width="421" height="505" viewBox="0 0 421 505" fill="none" xmlns="http://www.w3.org/2000/svg">
<path d="M32.76 500.598C29.5971 502.714 25.9189 503.93 22.1183 504.118C18.3176 504.305 14.5375 503.456 11.1819 501.662C7.82622 499.868 5.02116 497.196 3.06646 493.931C1.11175 490.666 0.080879 486.931 0.0839914 483.126V84.504C0.0839469 62.2549 8.91085 40.9146 24.6276 25.1663C40.3443 9.4181 61.6669 0.548482 83.916 0.503984L335.916 0.0419774C346.947 0.0198933 357.874 2.17076 368.074 6.37176C378.274 10.5728 387.547 16.7416 395.362 24.5262C403.178 32.3107 409.384 41.5584 413.626 51.7413C417.867 61.9243 420.062 72.843 420.084 83.874V483.126C420.087 486.931 419.056 490.666 417.102 493.931C415.147 497.196 412.342 499.868 408.986 501.662C405.631 503.456 401.85 504.305 398.05 504.118C394.249 503.93 390.571 502.714 387.408 500.598L210.084 382.158L32.718 500.598H32.76ZM378.042 84L377.748 79.044C376.534 68.8279 371.613 59.4126 363.917 52.5844C356.222 45.7561 346.288 41.9898 336 42L84 42.42C72.8755 42.4422 62.2142 46.877 54.3558 54.7512C46.4974 62.6253 42.084 73.2955 42.084 84.42V443.814L198.408 339.402C201.859 337.1 205.915 335.871 210.063 335.871C214.212 335.871 218.267 337.1 221.718 339.402L378.084 443.814V84H378.042Z" fill="black"/>
</svg>
