<svg width="672" height="672" viewBox="0 0 672 672" fill="none" xmlns="http://www.w3.org/2000/svg">
<path d="M158.76 584.598C155.597 586.714 151.919 587.93 148.118 588.118C144.318 588.305 140.538 587.456 137.182 585.662C133.826 583.868 131.021 581.196 129.066 577.931C127.112 574.666 126.081 570.931 126.084 567.126V168.504C126.084 146.255 134.911 124.915 150.628 109.166C166.344 93.4181 187.667 84.5485 209.916 84.504L461.916 84.042C472.947 84.0199 483.874 86.1708 494.074 90.3718C504.274 94.5728 513.547 100.742 521.362 108.526C529.178 116.311 535.384 125.558 539.626 135.741C543.867 145.924 546.062 156.843 546.084 167.874V567.126C546.087 570.931 545.056 574.666 543.102 577.931C541.147 581.196 538.342 583.868 534.986 585.662C531.631 587.456 527.85 588.305 524.05 588.118C520.249 587.93 516.571 586.714 513.408 584.598L336.084 466.158L158.718 584.598H158.76ZM504.042 168L503.748 163.044C502.534 152.828 497.613 143.413 489.917 136.584C482.222 129.756 472.288 125.99 462 126L210 126.42C198.875 126.442 188.214 130.877 180.356 138.751C172.497 146.625 168.084 157.295 168.084 168.42V527.814L324.408 423.402C327.859 421.1 331.915 419.871 336.063 419.871C340.212 419.871 344.267 421.1 347.718 423.402L504.084 527.814V168H504.042Z" fill="black"/>
</svg>
