<svg width="421" height="505" viewBox="0 0 421 505" fill="none" xmlns="http://www.w3.org/2000/svg">
<path d="M32.76 500.598C29.5972 502.714 25.9189 503.93 22.1183 504.118C18.3176 504.305 14.5375 503.456 11.1819 501.662C7.82622 499.868 5.02116 497.196 3.06646 493.931C1.11175 490.666 0.080879 486.931 0.0839914 483.126V84.504C0.0839469 62.2549 8.91085 40.9146 24.6276 25.1663C40.3443 9.4181 61.6669 0.548482 83.916 0.503984L335.916 0.0419774C346.947 0.0198933 357.874 2.17076 368.074 6.37176C378.274 10.5728 387.547 16.7416 395.362 24.5262C403.178 32.3107 409.384 41.5584 413.626 51.7413C417.867 61.9243 420.062 72.8429 420.084 83.874V483.126C420.087 486.931 419.056 490.666 417.102 493.931C415.147 497.196 412.342 499.868 408.986 501.662C405.631 503.456 401.85 504.305 398.05 504.118C394.249 503.93 390.571 502.714 387.408 500.598L210.084 382.158L32.718 500.598H32.76Z" fill="black"/>
</svg>
