<svg width="14" height="11" viewBox="0 0 14 11" fill="none" xmlns="http://www.w3.org/2000/svg">
<g clip-path="url(#clip0_7_1070)">
<path d="M4.95001 6.05H8.25001V7.15H4.95001V6.05Z" fill="black"/>
<path d="M11.792 3.3L11.0935 0.7975C11.027 0.568043 10.888 0.366307 10.6972 0.222529C10.5064 0.0787506 10.2742 0.000673686 10.0353 0H3.1647C2.9259 0.000792391 2.69379 0.0789242 2.50312 0.222694C2.31246 0.366463 2.17349 0.568133 2.10705 0.7975L1.39205 3.3H0V4.4H1.1V8.25C1.10029 8.54165 1.21628 8.82127 1.4225 9.0275C1.62873 9.23372 1.90835 9.34971 2.2 9.35V11H3.3V9.35H9.9V11H11V9.35C11.2916 9.34971 11.5713 9.23372 11.7775 9.0275C11.9837 8.82127 12.0997 8.54165 12.1 8.25V4.4H13.2V3.3H11.792ZM3.16525 1.1H10.0359L10.8212 3.85H2.3793L3.16525 1.1ZM11 7.15V8.25H2.2V7.15H3.3V6.05H2.2V4.95H11V6.05H9.9V7.15H11Z" fill="black"/>
</g>
<defs>
<clipPath id="clip0_7_1070">
<rect width="13.2" height="11" fill="white"/>
</clipPath>
</defs>
</svg>
