<svg width="580" height="580" viewBox="0 0 580 580" fill="none" xmlns="http://www.w3.org/2000/svg">
<path d="M453.125 235.625C453.125 192.362 435.939 150.87 405.347 120.278C374.755 89.6863 333.263 72.5 290 72.5C246.737 72.5 205.245 89.6863 174.653 120.278C144.061 150.87 126.875 192.362 126.875 235.625C126.875 302.542 180.416 389.76 290 494.232C399.584 389.76 453.125 302.542 453.125 235.625ZM290 543.75C157.071 422.929 90.625 320.196 90.625 235.625C90.625 182.747 111.631 132.036 149.021 94.6456C186.411 57.2555 237.122 36.25 290 36.25C342.878 36.25 393.589 57.2555 430.979 94.6456C468.369 132.036 489.375 182.747 489.375 235.625C489.375 320.196 422.929 422.929 290 543.75Z" fill="black"/>
<path d="M290 290C304.421 290 318.252 284.271 328.449 274.074C338.646 263.877 344.375 250.046 344.375 235.625C344.375 221.204 338.646 207.373 328.449 197.176C318.252 186.979 304.421 181.25 290 181.25C275.579 181.25 261.748 186.979 251.551 197.176C241.354 207.373 235.625 221.204 235.625 235.625C235.625 250.046 241.354 263.877 251.551 274.074C261.748 284.271 275.579 290 290 290V290ZM290 326.25C265.965 326.25 242.914 316.702 225.918 299.707C208.923 282.711 199.375 259.66 199.375 235.625C199.375 211.59 208.923 188.539 225.918 171.543C242.914 154.548 265.965 145 290 145C314.035 145 337.086 154.548 354.082 171.543C371.077 188.539 380.625 211.59 380.625 235.625C380.625 259.66 371.077 282.711 354.082 299.707C337.086 316.702 314.035 326.25 290 326.25Z" fill="black"/>
</svg>
