<svg width="698" height="698" viewBox="0 0 698 698" fill="none" xmlns="http://www.w3.org/2000/svg">
<path d="M370.812 119.969C370.812 111.291 367.365 102.969 361.229 96.8331C355.093 90.6971 346.771 87.25 338.094 87.25C329.416 87.25 321.094 90.6971 314.958 96.8331C308.822 102.969 305.375 111.291 305.375 119.969V305.375H119.969C111.291 305.375 102.969 308.822 96.8331 314.958C90.6971 321.094 87.25 329.416 87.25 338.094C87.25 346.771 90.6971 355.093 96.8331 361.229C102.969 367.365 111.291 370.812 119.969 370.812H305.375V556.219C305.375 564.896 308.822 573.218 314.958 579.354C321.094 585.49 329.416 588.938 338.094 588.938C346.771 588.938 355.093 585.49 361.229 579.354C367.365 573.218 370.812 564.896 370.812 556.219V370.812H556.219C564.896 370.812 573.218 367.365 579.354 361.229C585.49 355.093 588.938 346.771 588.938 338.094C588.938 329.416 585.49 321.094 579.354 314.958C573.218 308.822 564.896 305.375 556.219 305.375H370.812V119.969Z" fill="black"/>
</svg>
