<svg width="604" height="604" viewBox="0 0 604 604" fill="none" xmlns="http://www.w3.org/2000/svg">
<path d="M478.167 341.914V251.667C478.167 170.705 423.178 102.504 348.684 81.993C341.31 63.42 323.291 50.3333 302 50.3333C280.709 50.3333 262.69 63.42 255.316 81.993C180.823 102.529 125.833 170.705 125.833 251.667V341.914L82.8739 384.874C80.5323 387.207 78.6753 389.98 77.4098 393.034C76.1443 396.087 75.4952 399.361 75.5 402.667V453C75.5 459.675 78.1515 466.076 82.8712 470.796C87.5908 475.515 93.9921 478.167 100.667 478.167H503.333C510.008 478.167 516.409 475.515 521.129 470.796C525.849 466.076 528.5 459.675 528.5 453V402.667C528.505 399.361 527.856 396.087 526.59 393.034C525.325 389.98 523.468 387.207 521.126 384.874L478.167 341.914ZM478.167 427.833H125.833V413.086L168.793 370.126C171.134 367.793 172.991 365.02 174.257 361.966C175.522 358.913 176.171 355.639 176.167 352.333V251.667C176.167 182.282 232.616 125.833 302 125.833C371.385 125.833 427.833 182.282 427.833 251.667V352.333C427.833 359.028 430.476 365.42 435.207 370.126L478.167 413.086V427.833ZM302 553.667C317.586 553.686 332.79 548.85 345.5 539.829C358.21 530.808 367.794 518.052 372.92 503.333H231.08C236.206 518.052 245.79 530.808 258.5 539.829C271.21 548.85 286.414 553.686 302 553.667V553.667Z" fill="black"/>
</svg>
