<svg width="13" height="13" viewBox="0 0 13 13" fill="none" xmlns="http://www.w3.org/2000/svg">
<g clip-path="url(#clip0_7_1073)">
<path d="M2.9688 1.07895C2.92084 1.01724 2.86029 0.966456 2.79119 0.929953C2.72209 0.89345 2.64601 0.872067 2.56801 0.867226C2.49001 0.862384 2.41187 0.874195 2.33878 0.901872C2.2657 0.92955 2.19934 0.972462 2.14411 1.02776L1.30399 1.8687C0.91155 2.26195 0.766925 2.81851 0.938362 3.30682C1.6499 5.32799 2.80735 7.16302 4.32486 8.67582C5.83768 10.1933 7.67271 11.3508 9.69386 12.0623C10.1822 12.2338 10.7387 12.0891 11.132 11.6967L11.9721 10.8566C12.0274 10.8013 12.0703 10.735 12.098 10.6619C12.1257 10.5888 12.1375 10.5107 12.1326 10.4327C12.1278 10.3547 12.1064 10.2786 12.0699 10.2095C12.0334 10.1404 11.9826 10.0798 11.9209 10.0319L10.0465 8.57426C9.98057 8.52313 9.9039 8.48765 9.82227 8.47048C9.74063 8.4533 9.65617 8.4549 9.57524 8.47513L7.79586 8.91957C7.55835 8.97893 7.30952 8.97578 7.07359 8.91043C6.83765 8.84507 6.62266 8.71974 6.44955 8.54663L4.45405 6.55032C4.2808 6.37729 4.15531 6.16234 4.08982 5.9264C4.02432 5.69047 4.02104 5.44159 4.0803 5.20401L4.52555 3.42463C4.54579 3.3437 4.54738 3.25924 4.53021 3.1776C4.51304 3.09597 4.47755 3.0193 4.42642 2.95338L2.9688 1.07895ZM1.53067 0.415133C1.67286 0.272904 1.84367 0.162551 2.03178 0.091401C2.21988 0.0202511 2.42097 -0.0100676 2.62168 0.00245809C2.8224 0.0149838 3.01816 0.0700674 3.19596 0.164051C3.37376 0.258035 3.52953 0.388768 3.65292 0.54757L5.11055 2.4212C5.37786 2.76488 5.47211 3.21257 5.36649 3.63507L4.92205 5.41445C4.89907 5.50661 4.90031 5.60314 4.92565 5.69468C4.95099 5.78623 4.99957 5.86966 5.06668 5.93688L7.06299 7.9332C7.13029 8.00043 7.21386 8.04909 7.30556 8.07444C7.39726 8.09978 7.49396 8.10095 7.58624 8.07782L9.3648 7.63338C9.5733 7.58125 9.79092 7.5772 10.0012 7.62154C10.2115 7.66588 10.409 7.75745 10.5787 7.88932L12.4523 9.34695C13.1259 9.87101 13.1876 10.8663 12.5847 11.4684L11.7446 12.3085C11.1434 12.9098 10.2447 13.1738 9.40705 12.8789C7.26301 12.1245 5.31633 10.8971 3.71142 9.28763C2.1021 7.68296 0.874669 5.73657 0.120175 3.59282C-0.17395 2.75595 0.0901124 1.85651 0.691362 1.25526L1.53149 0.415133H1.53067Z" fill="black"/>
</g>
<defs>
<clipPath id="clip0_7_1073">
<rect width="13" height="13" fill="white"/>
</clipPath>
</defs>
</svg>
