<svg width="12" height="14" viewBox="0 0 12 14" fill="none" xmlns="http://www.w3.org/2000/svg">
<path d="M11.4141 10.9312C11.1193 10.2331 10.6916 9.59891 10.1547 9.06406C9.61944 8.52767 8.98537 8.10001 8.28751 7.80469C8.28126 7.80156 8.27501 7.8 8.26876 7.79688C9.2422 7.09375 9.87501 5.94844 9.87501 4.65625C9.87501 2.51562 8.14063 0.78125 6.00001 0.78125C3.85938 0.78125 2.12501 2.51562 2.12501 4.65625C2.12501 5.94844 2.75782 7.09375 3.73126 7.79844C3.72501 7.80156 3.71876 7.80312 3.71251 7.80625C3.01251 8.10156 2.38438 8.525 1.84532 9.06563C1.30893 9.60089 0.881266 10.235 0.585946 10.9328C0.295824 11.616 0.139355 12.3485 0.125009 13.0906C0.124592 13.1073 0.127517 13.1239 0.133611 13.1394C0.139706 13.1549 0.148848 13.1691 0.160497 13.181C0.172146 13.193 0.186067 13.2025 0.20144 13.2089C0.216813 13.2154 0.233327 13.2188 0.250009 13.2188H1.18751C1.25626 13.2188 1.31095 13.1641 1.31251 13.0969C1.34376 11.8906 1.82813 10.7609 2.68438 9.90469C3.57032 9.01875 4.74688 8.53125 6.00001 8.53125C7.25313 8.53125 8.4297 9.01875 9.31563 9.90469C10.1719 10.7609 10.6563 11.8906 10.6875 13.0969C10.6891 13.1656 10.7438 13.2188 10.8125 13.2188H11.75C11.7667 13.2188 11.7832 13.2154 11.7986 13.2089C11.814 13.2025 11.8279 13.193 11.8395 13.181C11.8512 13.1691 11.8603 13.1549 11.8664 13.1394C11.8725 13.1239 11.8754 13.1073 11.875 13.0906C11.8594 12.3438 11.7047 11.6172 11.4141 10.9312ZM6.00001 7.34375C5.28282 7.34375 4.60782 7.06406 4.10001 6.55625C3.5922 6.04844 3.31251 5.37344 3.31251 4.65625C3.31251 3.93906 3.5922 3.26406 4.10001 2.75625C4.60782 2.24844 5.28282 1.96875 6.00001 1.96875C6.7172 1.96875 7.3922 2.24844 7.90001 2.75625C8.40782 3.26406 8.68751 3.93906 8.68751 4.65625C8.68751 5.37344 8.40782 6.04844 7.90001 6.55625C7.3922 7.06406 6.7172 7.34375 6.00001 7.34375Z" fill="black"/>
</svg>
